<svg xmlns="http://www.w3.org/2000/svg" viewBox="0 0 647 64.05"><defs><style>.cls-1{fill:#2a2727;}.cls-2{fill:#fff;}</style></defs><g id="Layer_2" data-name="Layer 2"><g id="logo"><rect class="cls-1" width="647" height="64.05"/><path class="cls-2" d="M47.87,23.76a15.6,15.6,0,0,1-9.53,12.5l7.43,16.65H32.45L27.13,37.13H21.56L19.38,52.91H7.26l6-42.7H36.77C43.87,10.21,49.07,15.6,47.87,23.76ZM33,27.85a4.15,4.15,0,0,0,3.88-3.72c.35-2.38-1.21-3.71-2.81-3.71H23.79l-1,7.43Z"/><path class="cls-2" d="M66.92,26H84.84L83.4,36.2H65.52l-1,6.5H85.38L84,52.91H50.9l6-42.7h32.5L87.93,20.42H67.69Z"/><path class="cls-2" d="M102.28,52.86,93.71,10.21h13.14l4.06,28.71,12.26-28.71H136.6l-20.55,42.7Z"/><path class="cls-2" d="M151.72,26h17.92L168.21,36.2H150.33l-1,6.5h20.9l-1.44,10.21H135.7l6-42.7h32.5l-1.43,10.21H152.52Z"/><path class="cls-2" d="M215.78,23.76a15.57,15.57,0,0,1-9.56,12.5l7.44,16.65h-13.3l-5.31-15.78h-5.53L187.3,52.91H175.16l6-42.7h23.52c7.09,0,12.28,5.39,11.09,13.55ZM200.9,27.85a4.15,4.15,0,0,0,3.88-3.72c.34-2.38-1.22-3.71-2.82-3.71H191.7l-1,7.43Z"/><path class="cls-2" d="M244.36,20.42,239.8,52.91H227.68l4.57-32.49h-12l1.43-10.21h36.09l-1.44,10.21Z"/><path class="cls-2" d="M300.09,9.57a26.53,26.53,0,0,1,16.71,6.3l-3.71,7.91A22.19,22.19,0,0,0,301,19.87c-6.54,0-12.17,3.95-13.37,12.56-1.12,8,2.94,11.19,8.92,11.19,4.41,0,9.47-1.74,14.21-4.52l2.33,8.67a32.83,32.83,0,0,1-18,6.15c-13.74,0-21.45-10.25-19.68-22.86A24.75,24.75,0,0,1,300.09,9.57Z"/><path class="cls-2" d="M359.31,23.76a15.62,15.62,0,0,1-9.56,12.51l7.43,16.64H343.9l-5.32-15.78H333l-2.22,15.78H318.69l6-42.7h23.52C355.31,10.21,360.5,15.6,359.31,23.76Zm-14.86,4.09a4.14,4.14,0,0,0,3.87-3.72c.35-2.38-1.21-3.71-2.8-3.71H335.23l-1.05,7.43Z"/><path class="cls-2" d="M378.35,26h17.93L394.84,36.2H377l-1,6.5h20.91l-1.45,10.21H362.33l6-42.7h32.51L399.4,20.42H379.13Z"/><path class="cls-2" d="M431.34,52.86l-1.42-7.38H415.87l-3.54,7.43H399l22.65-42.7h12.13l10.65,42.7ZM428,36.2l-2.09-11.28L420.52,36.2Z"/><path class="cls-2" d="M470.69,20.42l-4.56,32.49H454l4.56-32.49h-12L448,10.21h36.09l-1.44,10.21Z"/><path class="cls-2" d="M482.91,52.86l6-42.65h12.19l-6,42.7Z"/><path class="cls-2" d="M551.32,32.43c-1.67,11.92-11.8,21.49-25.47,21.49-14.14,0-22.12-10.25-20.35-22.86,1.68-12,11.89-21.49,25.47-21.49C545.2,9.57,553.09,19.82,551.32,32.43ZM530.67,19.87c-6.63,0-11.91,5.32-12.93,12.56-.92,6.49,2.4,11.2,8.44,11.2,6.56,0,11.88-5.35,12.9-12.57.92-6.6-2.43-11.19-8.41-11.19Z"/><path class="cls-2" d="M595,52.91H584l-.09-.24L570.43,28.85l-3.32,24.06H555.39l6-42.7h10.89l.07.43L585.8,34.88l3.38-23.74h11.61Z"/><path class="cls-2" d="M639.84,15.12l-7.33,7.55c-2.36-2-5.22-2.79-8.76-2.79-3,0-5.23.55-5.66,2.93-.31,1.76.79,2.5,5.85,3.9,6.15,1.71,14.8,4.14,13.22,14.13-1.58,10.22-11.34,13.1-18.52,13.1-7,0-14.07-2.78-17.18-7.69l7.68-6.82c1.7,2.51,5.36,4.22,9.87,4.22,4.32,0,5.57-1.59,5.78-3.23.31-2.14-1.09-2.62-5.48-4-9.39-2.85-14.93-4.64-13.65-13.4,1.46-9.8,9.51-13.46,18.7-13.46C631.38,9.57,636.44,11.67,639.84,15.12Z"/></g></g></svg>