<svg xmlns="http://www.w3.org/2000/svg" viewBox="0 0 696.51 69.36"><defs><style>.cls-1{fill:#2a2727;}.cls-2{fill:#c1bfbe;}</style></defs><g id="Layer_2" data-name="Layer 2"><g id="Your_Design" data-name="Your Design"><rect class="cls-1" width="696.51" height="69.36"/><path class="cls-2" d="M51.26,26.23A16.78,16.78,0,0,1,41,39.68L49,57.6H34.59L28.93,40.8H23L20.68,57.6H7.56L14,11.65H39.32c7.64,0,13.23,5.8,11.94,14.58ZM35.14,30.08a4.27,4.27,0,0,0,4-3.84c.36-2.45-1.25-3.82-2.9-3.82H25.63l-1.08,7.66Z"/><path class="cls-2" d="M71.82,28.16H91.09L89.58,38.92H70.3l-1.11,7.92H91.68L90.17,57.6H54.55L61,11.65H96L94.46,22.42H72.62Z"/><path class="cls-2" d="M109.9,57.6l-9.23-45.95h14.15l4.37,30.93L132.4,11.65h14.47l-22.14,46Z"/><path class="cls-2" d="M163.18,28.16h19.27l-1.51,10.76H161.66l-1.11,7.92h22.5L181.53,57.6H145.91l6.46-45.95h35l-1.51,10.77H164Z"/><path class="cls-2" d="M232.15,26.23a16.77,16.77,0,0,1-10.29,13.45l8,17.92H215.48l-5.66-16.8h-5.89l-2.36,16.8H188.44l6.46-45.95h25.31c7.63,0,13.22,5.8,11.94,14.58ZM216,30.08a4.27,4.27,0,0,0,4-3.84c.35-2.45-1.25-3.82-2.9-3.82H206.51l-1.07,7.66Z"/><path class="cls-2" d="M263,22.42,258.07,57.6H244.94l4.95-35.18H237.43l1.51-10.77H277l-1.51,10.77Z"/><path class="cls-2" d="M323,10.74a28.62,28.62,0,0,1,18,6.78l-4,8.53a23.92,23.92,0,0,0-13-4.22c-7.05,0-13.11,4.26-14.41,13.53-1.2,8.57,3.17,12.06,9.61,12.06,4.75,0,10.2-1.87,15.31-4.87l2.51,9.34c-6.47,4.5-13.66,6.63-19.42,6.63-14.8,0-23.11-11.05-21.2-24.63A26.65,26.65,0,0,1,323,10.74Z"/><path class="cls-2" d="M386.77,26.23a16.82,16.82,0,0,1-10.29,13.46l8,17.91H370.1l-5.66-16.79h-5.89L356.19,57.6H343.06l6.46-45.95h25.31c7.63,0,13.22,5.8,11.94,14.58Zm-16.13,3.85a4.27,4.27,0,0,0,4-3.84c.36-2.45-1.25-3.82-2.89-3.82H361.13l-1.08,7.66Z"/><path class="cls-2" d="M407.32,28.16H426.6l-1.52,10.76H405.8l-1.11,7.92h22.5L425.67,57.6H390.05l6.46-45.95h35L430,22.42H408.12Z"/><path class="cls-2" d="M464.35,57.6,462.89,50H447.63L444,57.6H429.54l24.37-45.95H467l11.47,46Zm-3.53-18.39-2.25-12.15-5.84,12.15Z"/><path class="cls-2" d="M506.83,22.42,501.89,57.6H488.76l4.94-35.18H481.24l1.51-10.77h38.06l-1.52,10.77Z"/><path class="cls-2" d="M519.94,57.6l6.46-45.95h13.13l-6.46,46Z"/><path class="cls-2" d="M593.64,35.36c-1.8,12.85-12.71,23.16-27.44,23.16-15.23,0-23.83-11.05-21.92-24.63,1.81-12.93,12.81-23.15,27.44-23.15C587.05,10.74,595.55,21.78,593.64,35.36ZM571.39,21.83c-7.14,0-12.83,5.74-13.92,13.53-1,7,2.58,12.07,9.09,12.07,7.06,0,12.8-5.76,13.89-13.54,1-7.11-2.61-12.06-9.06-12.06Z"/><path class="cls-2" d="M640.57,57.6H628.86l-.1-.26L614.23,31.71,610.65,57.6h-12.6l6.45-45.94h11.72l.08.23L630.79,38l3.64-26.36H647Z"/><path class="cls-2" d="M689,16.72l-7.9,8.13c-2.54-2.17-5.62-3-9.43-3-3.21,0-5.64.59-6.1,3.15-.33,1.9.85,2.69,6.3,4.2,6.63,1.84,15.95,4.46,14.24,15.23-1.7,11-12.21,14.11-19.95,14.11-7.55,0-15.16-3-18.51-8.29l8.28-7.34c1.83,2.7,5.77,4.54,10.63,4.54,4.65,0,6-1.71,6.23-3.48.33-2.3-1.18-2.82-5.91-4.27-10.11-3.08-16.08-5-14.7-14.44,1.57-10.56,10.24-14.5,20.15-14.5C679.89,10.74,685.34,13,689,16.72Z"/></g></g></svg>